<?xml version="1.0" encoding="UTF-8"?>
<svg id="Capa_2" data-name="Capa 2" xmlns="http://www.w3.org/2000/svg" viewBox="0 0 28.38 34.69">
  <defs>
    <style>
      .cls-1 {
        fill: #1f3d82;
      }

      .cls-2 {
        fill: #4b72b7;
      }
    </style>
  </defs>
  <g id="Capa_1-2" data-name="Capa 1">
    <g>
      <path class="cls-2" d="m18.58,20.94c-1.27,1.34-2.92,2.02-4.96,2.02s-3.84-.73-5.14-2.2c-1.29-1.47-1.94-3.42-1.94-5.84,0-2.01.43-3.67,1.27-5.01-.96-.34-1.66-1.25-1.66-2.33V3.15c-.82.52-1.6,1.13-2.32,1.84C1.28,7.57,0,10.88,0,14.92s1.25,7.33,3.74,9.87c2.49,2.53,5.71,3.83,9.64,3.88,3.94,0,6.97,2.01,9.1,6.02,2.51-.75,4.26-1.71,5.26-2.87-.94-2.43-2.93-4.3-5.94-5.62,1.52-1.09,2.74-2.46,3.66-4.09h-4.78c-.89,0-1.66-.47-2.09-1.16Z"/>
      <path class="cls-1" d="m28.38,13.79c0,2.4-.48,4.57-1.43,6.51-.12.23-.23.45-.36.68h-4.78c-.89,0-1.66-.47-2.1-1.16.06-.06.12-.12.17-.18,1.3-1.47,1.95-3.42,1.95-5.84s-.64-4.45-1.92-5.91-3-2.18-5.15-2.18-3.87.73-5.15,2.18c-.24.28-.46.58-.66.9-.96-.34-1.65-1.25-1.65-2.33V2.02C9.42.68,11.9,0,14.76,0c3.99,0,7.26,1.27,9.8,3.8,2.55,2.53,3.82,5.87,3.82,9.99Z"/>
    </g>
  </g>
</svg>