<?xml version="1.0" encoding="UTF-8"?>
<svg id="Capa_2" data-name="Capa 2" xmlns="http://www.w3.org/2000/svg" viewBox="0 0 114.64 41.73">
  <defs>
    <style>
      .cls-1, .cls-2 {
        fill: #1f3d82;
      }

      .cls-3 {
        letter-spacing: 0em;
      }

      .cls-4 {
        letter-spacing: 0em;
      }

      .cls-5 {
        fill: #4b72b7;
      }

      .cls-2 {
        font-family: BrandingSF-Bold, BrandingSF-Bold;
        font-size: 39.26px;
        font-weight: 700;
      }
    </style>
  </defs>
  <g id="Capa_1-2" data-name="Capa 1">
    <g>
      <g>
        <path class="cls-5" d="m104.84,26.1c-1.27,1.34-2.92,2.02-4.96,2.02s-3.84-.73-5.14-2.2c-1.29-1.47-1.94-3.42-1.94-5.84,0-2.01.43-3.67,1.27-5.01-.96-.34-1.66-1.25-1.66-2.33v-4.44c-.82.52-1.6,1.13-2.32,1.84-2.56,2.57-3.84,5.88-3.84,9.93s1.25,7.33,3.74,9.87c2.49,2.53,5.71,3.83,9.64,3.88,3.94,0,6.97,2.01,9.1,6.02,2.51-.75,4.26-1.71,5.26-2.87-.94-2.43-2.93-4.3-5.94-5.62,1.52-1.09,2.74-2.46,3.66-4.09h-4.78c-.89,0-1.66-.47-2.09-1.16Z"/>
        <path class="cls-1" d="m114.64,18.95c0,2.4-.48,4.57-1.43,6.51-.12.23-.23.45-.36.68h-4.78c-.89,0-1.66-.47-2.1-1.16.06-.06.12-.12.17-.18,1.3-1.47,1.95-3.42,1.95-5.84s-.64-4.45-1.92-5.91-3-2.18-5.15-2.18-3.87.73-5.15,2.18c-.24.28-.46.58-.66.9-.96-.34-1.65-1.25-1.65-2.33v-4.43c2.13-1.34,4.61-2.02,7.47-2.02,3.99,0,7.26,1.27,9.8,3.8,2.55,2.53,3.82,5.87,3.82,9.99Z"/>
      </g>
      <text class="cls-2" transform="translate(0 32.23)"><tspan class="cls-4" x="0" y="0">M</tspan><tspan class="cls-3" x="31.21" y="0">edi</tspan></text>
    </g>
  </g>
</svg>